<?xml version="1.0" encoding="UTF-8"?>
<!DOCTYPE svg PUBLIC "-//W3C//DTD SVG 1.1//EN" "http://www.w3.org/Graphics/SVG/1.1/DTD/svg11.dtd">
<!-- Creator: CorelDRAW 2020 (64-Bit) -->
<svg xmlns="http://www.w3.org/2000/svg" xml:space="preserve" width="2.7092mm" height="2.7092mm" version="1.1" style="shape-rendering:geometricPrecision; text-rendering:geometricPrecision; image-rendering:optimizeQuality; fill-rule:evenodd; clip-rule:evenodd"
viewBox="0 0 270.92 270.92"
 xmlns:xlink="http://www.w3.org/1999/xlink"
 xmlns:xodm="http://www.corel.com/coreldraw/odm/2003">
 <defs>
  <style type="text/css">
   <![CDATA[
    .fil0 {fill:#493B5F;fill-rule:nonzero}
   ]]>
  </style>
 </defs>
 <g id="Слой_x0020_1">
  <metadata id="CorelCorpID_0Corel-Layer"/>
  <path class="fil0" d="M31.6 135.46l198.68 0 0 9.03 -198.68 0 0 -9.03zm99.53 -135.47l-0.38 0c-34.82,0.11 -63.02,28.37 -63.02,63.22 0,1.03 0.11,2.06 0.17,3.1 -24.97,8.63 -40,34.09 -35.51,60.12l-0.79 0c-4.98,0 -9.03,4.04 -9.03,9.03l0 9.03c0,4.99 4.05,9.03 9.03,9.03l0 0 0.69 0c2.82,13.83 17.16,57.5 85.11,62.68l0 27.63 -27.1 0c-9.97,0 -18.06,8.09 -18.06,18.06l0 4.52c0,2.49 2.02,4.51 4.52,4.51l108.37 0c2.49,0 4.51,-2.02 4.51,-4.51l0 -4.52c0,-9.97 -8.08,-18.06 -18.06,-18.06l-27.09 0 0 -27.63c67.94,-5.18 82.28,-48.85 85.11,-62.68l0.68 0c4.99,0 9.03,-4.04 9.03,-9.03l0 -9.03c0,-4.99 -4.04,-9.03 -9.03,-9.03l-0.78 0c4.49,-26.03 -10.54,-51.48 -35.5,-60.12 0.05,-1.03 0.16,-2.06 0.16,-3.1 0,-34.85 -28.2,-63.11 -63.03,-63.22zm-45.34 72.25c16.96,0.06 32.46,9.59 40.16,24.71 -3.85,9.32 -4.98,19.54 -3.25,29.48l-81.16 0c-2.7,-13.29 0.71,-27.08 9.29,-37.58 8.57,-10.5 21.4,-16.6 34.96,-16.61zm45.15 -63.22c29.92,0.04 54.16,24.28 54.19,54.19 0,0.27 -0.04,0.54 -0.04,0.81 -2.97,-0.52 -5.98,-0.79 -8.99,-0.81 -0.03,-24.93 -20.23,-45.13 -45.16,-45.16 -2.49,0 -4.51,2.03 -4.51,4.52 0,2.49 2.02,4.52 4.51,4.52 19.94,0.02 36.1,16.18 36.13,36.12 0.02,0.27 0.08,0.53 0.16,0.79 -14.83,2.46 -27.97,10.97 -36.29,23.49 -11.73,-17.96 -33.03,-27.2 -54.16,-23.49 0,-0.26 -0.04,-0.53 -0.04,-0.8 0.04,-29.92 24.29,-54.15 54.2,-54.18zm90.31 108.38c0,3.03 -0.3,6.06 -0.9,9.03l-88.5 0c-3.43,-16.87 3.03,-34.21 16.65,-44.73 13.62,-10.52 32.04,-12.38 47.49,-4.8 15.45,7.58 25.24,23.29 25.26,40.5zm-90.31 90.31c-71.22,0 -86.39,-39.99 -89.53,-54.19l179.06 0c-3.13,14.2 -18.3,54.19 -89.53,54.19zm40.64 45.15c4.99,0 9.03,4.05 9.03,9.03l-99.34 0c0,-4.98 4.05,-9.03 9.03,-9.03l31.61 0c2.5,0 4.52,-2.02 4.52,-4.51l0 -31.72c1.5,0.04 2.96,0.11 4.51,0.11 1.55,0 3.01,-0.07 4.52,-0.11l0 31.72c0,2.49 2.02,4.51 4.51,4.51l31.61 0z"/>
  <path class="fil0" d="M58.2 169.65c3.14,4.49 6.93,8.48 11.24,11.87 1.96,1.54 4.8,1.21 6.35,-0.75 1.54,-1.95 1.21,-4.79 -0.75,-6.34 -3.62,-2.83 -6.8,-6.18 -9.44,-9.93 -1.45,-1.99 -4.22,-2.46 -6.23,-1.05 -2.02,1.4 -2.54,4.17 -1.17,6.21l0 -0.01z"/>
  <path class="fil0" d="M88.74 192.11c13.57,4.64 27.86,6.87 42.2,6.57 43.4,0 63.53,-15.79 72.78,-29.03 1.37,-2.05 0.85,-4.81 -1.17,-6.21 -2.01,-1.41 -4.79,-0.94 -6.23,1.05 -8.03,11.47 -25.86,25.15 -65.38,25.15 -13.27,0.3 -26.5,-1.73 -39.07,-6 -2.34,-0.87 -4.94,0.33 -5.8,2.67 -0.87,2.34 0.33,4.94 2.67,5.8l0 0z"/>
  <path class="fil0" d="M171.58 85.79c0,2.49 2.02,4.51 4.52,4.51 13.44,0.05 24.84,9.92 26.81,23.22 0.35,2.47 2.64,4.19 5.11,3.83 2.47,-0.35 4.19,-2.64 3.83,-5.11 -2.63,-17.74 -17.82,-30.9 -35.75,-30.97 -2.5,0 -4.52,2.02 -4.52,4.52z"/>
  <path class="fil0" d="M86.11 90.3c13.45,0.05 24.84,9.92 26.82,23.22 0.32,2.22 2.22,3.88 4.47,3.88 0.22,0 0.43,-0.02 0.65,-0.05 2.46,-0.35 4.18,-2.64 3.82,-5.11 -2.63,-17.74 -17.83,-30.9 -35.76,-30.97 -2.5,0 -4.52,2.02 -4.52,4.52 0,2.49 2.02,4.51 4.52,4.51z"/>
  <path class="fil0" d="M221.25 233.4c-2.01,-3.02 -4.6,-5.62 -7.63,-7.63 3.03,-2.01 5.62,-4.61 7.63,-7.63 2.01,3.02 4.61,5.62 7.63,7.63 -3.02,2.01 -5.62,4.61 -7.63,7.63zm4.52 -30.21c0,-2.49 -2.03,-4.51 -4.52,-4.51 -2.49,0 -4.51,2.02 -4.51,4.51 0,9.98 -8.09,18.06 -18.07,18.06 -2.49,0 -4.51,2.03 -4.51,4.52 0,2.49 2.02,4.52 4.51,4.52 9.98,0 18.07,8.08 18.07,18.06 0,2.49 2.02,4.51 4.51,4.51 2.49,0 4.52,-2.02 4.52,-4.51 0,-9.98 8.08,-18.06 18.06,-18.06 2.49,0 4.51,-2.03 4.51,-4.52 0,-2.49 -2.02,-4.52 -4.51,-4.52 -9.98,0 -18.06,-8.08 -18.06,-18.06z"/>
 </g>
</svg>
