<?xml version="1.0" encoding="utf-8"?>
<!-- Generator: Adobe Illustrator 24.1.2, SVG Export Plug-In . SVG Version: 6.00 Build 0)  -->
<svg version="1.1" id="Слой_1" xmlns="http://www.w3.org/2000/svg" xmlns:xlink="http://www.w3.org/1999/xlink" x="0px" y="0px"
	 viewBox="0 0 28 28" style="enable-background:new 0 0 28 28;" xml:space="preserve">
<style type="text/css">
	.st0{fill:#B87390;}
</style>
<g>
	<path class="st0" d="M24.2,10.7c0,1.1-1.1,3.2-5,4.4c-2.2,0.6-3.6,2.8-3.3,5.1c1.4-1.7,3.3-2.8,5.5-3.1c-3.3,1.2-6.3,5.9-6.3,5.9
		c-0.9-3-3.3-5.4-6.3-6.3c2.7-0.1,5.2,2.5,5.2,2.5c1.6-5.9-4.4-7.3-7.3-8.2c-1.7-0.6-3-2-3.4-3.8c-1.7,4-1.7,10.2,1.8,12.8
		s7.5,0.6,7.5,0.6c1.8,1.6,1.8,5.3,1.8,5.3h1.1c0.1-2.8,1.2-3.9,1.2-3.9c3,1.6,6.3-1,6.3-1C28.1,17.3,24.2,10.7,24.2,10.7z"/>
	<path class="st0" d="M16.6,13.4c2.2,0,4-1.8,4-4l0,0c0-2.2-4-7.4-4-7.4s-4,5.2-4,7.4S14.4,13.4,16.6,13.4z M17,10.3
		c1-0.8,1.5-2.1,1.4-3.4c0,0,1.5,2.4,0.2,4.4c0,0.1-0.1,0.1-0.2,0.2c-0.2,0.3-0.5,0.4-0.8,0.4c-0.5,0-0.9-0.4-0.9-1c0,0,0,0,0-0.1
		C16.7,10.7,16.8,10.5,17,10.3L17,10.3z M15.7,6.2c0.4,0,0.7,0.3,0.7,0.7c0,0.4-0.3,0.7-0.7,0.7l0,0c-0.4,0-0.7-0.3-0.7-0.7
		S15.3,6.2,15.7,6.2L15.7,6.2z"/>
</g>
</svg>
